<svg width="100%" height="100%" viewBox="0 0 2134 2134" xmlns="http://www.w3.org/2000/svg" ><rect x="0" y="0" width="2134" height="2134" fill="#fffd2f"/><path fill="#c34839" d="M1501.63,1002.76c-11.31,18.642 -182.781,142.167 -230.57,140.117c-106.446,-4.566 -302.424,-168.839 -342.496,-179.419c-85.828,-22.66 -163.954,39.601 -244.725,55.742c-91.821,18.349 -102.493,-8.44 -179.088,-18.913c-22.311,-3.051 -45.722,17.724 -67.058,22.192c-63.903,13.38 -168.369,-76.028 -184.202,-60.382c-20.324,20.083 -115.7,119.469 -56.145,306.455c25.495,80.046 48.339,90.245 18.02,180.525c-9.697,28.876 -78.87,81.629 -74.239,103.967c4.228,20.393 241.361,13.127 300.409,222.006c2.984,10.554 75.478,-22.919 146.804,41.249c18.288,16.453 326.413,-233.496 450.115,-85.116c7.236,8.679 64.151,128.088 81.935,108.922c90.888,-97.957 188.964,-27.132 231.18,-9.351c133.696,56.313 154.7,-46.919 181.7,-20.6c24.25,23.639 3.923,77.714 10.544,107.005c17.363,76.817 127.757,108.532 134.102,93.739c18.969,-44.221 -92.382,-168.95 -80.673,-203.816c12.676,-37.745 74.456,57.074 83.071,53.951c104.224,-37.785 229.657,28.148 239.964,7.746c27.895,-55.22 -89.842,-115.769 -66.059,-182.458c37.296,-104.582 -29.428,-117.986 -55.734,-139.676c-86.17,-71.049 -8.606,-89.431 -23.824,-105.074c-39.749,-40.858 -45.974,-109.537 -33.671,-124.511c129.773,-157.936 17.209,-278.084 9.055,-296.584c-16.485,-37.405 -58.594,-81.681 -51.288,-125.617c10.56,-63.493 95.199,-150.496 134.603,-201.126c57.952,-74.461 112.285,-140.39 146.23,-227.888c19.097,-49.225 23.057,-161.324 -2.742,-211.282c-18.517,-35.854 -144.158,-134.221 -170.776,-137.813c-135.807,-18.323 -26.285,27.811 -10.446,37.193c37.779,22.38 104.442,73.895 124.009,111.982c35.15,68.42 11.395,141.859 -24.957,212.955c-21.763,42.563 -117.386,155.39 -174.619,127.546c-11.778,-5.73 1.66,-53.283 9.218,-57.024c15.373,-7.609 51.59,13.695 65.898,-5.162c5.226,-6.888 1.942,-19 5.016,-29.227c4.745,-15.783 23.061,-36.055 4.253,-35.991c-0,-0 -23.426,4.301 -28.854,3.043c24.818,-26.752 15.78,-49.078 10.564,-69.264c-8.705,-33.696 -43.769,-46.828 -75.519,-46.72c-53.142,0.181 -80.223,35.094 -104.651,71.322c-7.125,10.565 -24.408,16.096 -30.476,22.093c-4.763,4.706 21.33,12.726 22.455,14.916c5.581,10.864 -7.134,25.829 -0.889,37.984c2.924,5.691 -4.003,21.999 -0.933,24.991c8.754,8.534 33.926,-13.75 44.798,-3.151c8.206,7.999 2.509,53.427 1.203,54.243c-16.068,10.034 -103.424,-14.906 -126.315,-26.043c-15.828,-7.701 -32.368,-2.001 -46.088,4.838c-32.506,16.203 -79.183,33.863 -99.298,38.491c-9.164,2.108 -38.67,8.433 -47.989,9.99c-10.23,1.709 -56.26,21.964 -77.732,29.374c-21.779,7.516 95.237,84.092 131.013,120.39c19.351,19.633 71.051,64.366 76.189,81.731c1.481,5.005 19.968,61.711 27.407,56.196c13.309,-9.867 12.18,-73.547 6.762,-86.188c-12.005,-28.013 -34.831,-45.669 -54.284,-68.079c-10.789,-12.428 -77.127,-69.766 -75.843,-73.587c0.957,-2.852 30.328,-6.224 38.607,-6.642c38.739,-1.953 114.522,-16.838 122.553,-12.425c0,0 -22.226,22.291 -33.064,31.234c-55.392,45.71 44.078,116.448 51.164,131.065c25.97,53.575 -16.81,156.269 -33.594,183.936Z"/></svg>