<svg width="100%" height="100%" viewBox="0 0 1024 1024" xmlns="http://www.w3.org/2000/svg">
  <rect x="0" y="0" width="1024" height="1024" style="fill:rgb(255,254,48);"/>
  <path d="M765.675,98.206C714.426,98.206 719.491,138.114 722.109,174.521C723.095,188.247 703.363,194.111 709.479,200.324C717.054,208.018 733.649,200.002 737.401,222.096C737.882,224.929 743.864,220.064 745.896,222.096C746.887,223.087 744.905,227.052 745.896,228.043C750.036,232.182 769.672,217.812 776.48,238.238C788.626,274.674 732.118,286.739 726.356,315.547C721.442,340.117 747.688,356.977 750.994,380.114C756.957,421.86 721.97,510.802 687.277,535.583C595.141,601.395 535.674,475.807 441.754,452.327C375.889,435.86 351.177,517.064 228.514,471.866C215.758,467.166 207.998,497.859 149.505,476.964C134.288,471.528 104.566,440.667 89.187,459.123C65.958,486.998 58.026,579.638 61.151,617.141C62.263,630.477 112.883,676.005 50.956,742.876C23.949,772.04 95.063,799.406 125.718,811.69C180.196,833.522 177.622,892.884 186.036,899.195C192.997,904.415 236.358,871.287 258.249,907.69C263.139,915.822 323.379,859.882 346.261,849.594C381.864,833.587 466.039,825.346 490.179,837.177C522.151,852.847 525.416,946.278 563.241,931.478C634.341,903.659 697.533,927.184 718.71,929.779C731.349,931.327 735.456,901.095 752.693,906.841C779.734,915.855 746.264,983.141 805.365,1002.84C813.846,1005.67 828.352,1009.34 837.649,1006.24C858.986,999.127 767.897,915.366 798.569,905.142C818.416,898.526 831.032,948.107 848.693,942.522C907.269,924 959.194,957.583 961.684,947.62C968.558,920.127 942.88,885.512 937.047,859.266C931.919,836.188 966.586,814.823 947.242,803.195C883.279,764.747 913.123,730.572 909.861,720.787C902.004,697.215 880.582,669.603 876.728,642.628C871.902,608.84 904.672,580.311 909.861,549.176C913.064,529.959 878.127,466.856 874.546,438.216C872.12,418.805 896.159,310.256 898.817,294.308C908.965,233.419 928.881,145.324 884.217,75.627C858.512,35.514 613.982,-2.465 571.663,18.694C558.531,25.26 787.47,33.519 843.293,84.147C871.816,110.015 912.033,239.479 820.245,226.46C813.171,225.457 814.198,164.838 818.958,160.078C824.15,154.887 828.658,153.422 832.551,145.636C833.962,142.814 813.069,103.611 805.365,99.759C801.747,97.95 801.337,105.706 797.719,105.706C784.383,105.706 778.913,98.206 765.675,98.206Z" style="fill:rgb(195,72,57);"/>
</svg>